<svg width="53" height="51" viewBox="0 0 53 51" fill="none" xmlns="http://www.w3.org/2000/svg">
<path d="M18.1431 25.3588C18.1431 20.8027 22.0203 17.1083 26.8043 17.1083C31.5884 17.1083 35.4677 20.8027 35.4677 25.3588C35.4677 29.9149 31.5884 33.6092 26.8043 33.6092C22.0203 33.6092 18.1431 29.9149 18.1431 25.3588ZM13.4598 25.3588C13.4598 32.3777 19.4342 38.0673 26.8043 38.0673C34.1745 38.0673 40.1488 32.3777 40.1488 25.3588C40.1488 18.3399 34.1745 12.6503 26.8043 12.6503C19.4342 12.6503 13.4598 18.3399 13.4598 25.3588ZM37.5585 12.1464C37.5583 12.7338 37.741 13.308 38.0834 13.7966C38.4259 14.2851 38.9128 14.6659 39.4825 14.891C40.0523 15.116 40.6793 15.175 41.2843 15.0606C41.8893 14.9463 42.445 14.6636 42.8814 14.2484C43.3177 13.8333 43.6149 13.3042 43.7355 12.7281C43.856 12.1521 43.7945 11.5549 43.5587 11.0121C43.3229 10.4693 42.9234 10.0053 42.4107 9.6788C41.898 9.35227 41.2951 9.17786 40.6783 9.17762H40.6771C39.8503 9.17799 39.0575 9.49084 38.4728 10.0475C37.8881 10.6041 37.5593 11.359 37.5585 12.1464ZM16.3052 45.5042C13.7715 45.3943 12.3943 44.9924 11.4791 44.6528C10.2658 44.203 9.40011 43.6672 8.48991 42.8016C7.57971 41.9359 7.01629 41.1123 6.54602 39.9568C6.18925 39.0856 5.76721 37.7737 5.65203 35.3607C5.52604 32.7519 5.50089 31.9683 5.50089 25.359C5.50089 18.7497 5.52812 17.9682 5.65203 15.3573C5.76742 12.9443 6.19258 11.6349 6.54602 10.7612C7.01837 9.60569 7.58096 8.78123 8.48991 7.91441C9.39886 7.04759 10.2637 6.51102 11.4791 6.06315C12.3939 5.72339 13.7715 5.32146 16.3052 5.21177C19.0445 5.09179 19.8674 5.06783 26.8043 5.06783C33.7412 5.06783 34.5649 5.09377 37.3066 5.21177C39.8403 5.32166 41.2151 5.72656 42.1326 6.06315C43.346 6.51102 44.2117 7.04878 45.1219 7.91441C46.0321 8.78005 46.5934 9.60569 47.0658 10.7612C47.4225 11.6324 47.8446 12.9443 47.9597 15.3573C48.0857 17.9682 48.1109 18.7497 48.1109 25.359C48.1109 31.9683 48.0857 32.7497 47.9597 35.3607C47.8444 37.7737 47.4202 39.0852 47.0658 39.9568C46.5934 41.1123 46.0308 41.9367 45.1219 42.8016C44.2129 43.6664 43.346 44.203 42.1326 44.6528C41.2179 44.9926 39.8403 45.3945 37.3066 45.5042C34.5672 45.6242 33.7444 45.6482 26.8043 45.6482C19.8643 45.6482 19.0437 45.6242 16.3052 45.5042ZM16.09 0.759257C13.3235 0.879243 11.433 1.29701 9.78203 1.90882C8.07223 2.54062 6.62481 3.38824 5.17843 4.76351C3.73204 6.13879 2.8443 7.51941 2.18088 9.14772C1.53845 10.721 1.09978 12.5204 0.973789 15.1551C0.845721 17.794 0.816406 18.6376 0.816406 25.3588C0.816406 32.0799 0.845721 32.9236 0.973789 35.5625C1.09978 38.1974 1.53845 39.9966 2.18088 41.5698C2.8443 43.1972 3.73225 44.5794 5.17843 45.9541C6.6246 47.3287 8.07223 48.1752 9.78203 48.8088C11.4361 49.4206 13.3235 49.8383 16.09 49.9583C18.8624 50.0783 19.7468 50.1082 26.8043 50.1082C33.8618 50.1082 34.7477 50.0803 37.5186 49.9583C40.2854 49.8383 42.1746 49.4206 43.8266 48.8088C45.5354 48.1752 46.9838 47.3293 48.4302 45.9541C49.8766 44.5788 50.7625 43.1972 51.4278 41.5698C52.0702 39.9966 52.511 38.1972 52.6349 35.5625C52.7609 32.9216 52.7902 32.0799 52.7902 25.3588C52.7902 18.6376 52.7609 17.794 52.6349 15.1551C52.5089 12.5202 52.0702 10.72 51.4278 9.14772C50.7625 7.5204 49.8743 6.14097 48.4302 4.76351C46.9861 3.38606 45.5354 2.54062 43.8287 1.90882C42.1746 1.29701 40.2852 0.877263 37.5207 0.759257C34.7498 0.639272 33.8639 0.609375 26.8064 0.609375C19.7489 0.609375 18.8624 0.637292 16.09 0.759257Z" fill="#222222"/>
</svg>
