<svg width="153" height="72" viewBox="0 0 153 72" fill="none" xmlns="http://www.w3.org/2000/svg">
<path d="M39.5116 71.9973H3.47641C2.78796 71.9973 2.09952 72.0066 1.41107 71.9906C0.2288 71.9627 0.0385955 71.7513 0.00856621 70.4483C-0.00366796 69.8992 0.000793594 69.3501 0.000793594 68.8024C0.000793594 46.9418 0.000793594 25.0813 0.000793594 3.22071C0.000793594 2.40037 0.0475116 1.57999 0.0831019 0.760983C0.111615 0.583086 0.187214 0.42093 0.298767 0.298349C0.41032 0.175769 0.551919 0.0993136 0.702603 0.0803001C1.46557 0.0444021 2.22965 0.00320793 2.99373 0.00320793C19.2148 0.00320793 35.4358 0.00320793 51.6568 0.00320793C59.9204 0.00320793 68.184 0.00320793 76.4477 0.00320793C79.256 0.00320793 79.117 -0.220174 79.117 3.06117C79.117 25.0139 79.117 46.9661 79.117 68.918C79.117 69.6479 79.0925 70.3805 79.0614 71.1091C79.0484 71.3381 78.963 71.5527 78.8226 71.7092C78.6821 71.8658 78.4971 71.9526 78.3051 71.9521C77.541 71.9827 76.7758 72 76.0117 72C63.8443 71.9991 51.6776 71.9982 39.5116 71.9973ZM39.5116 68.0272C50.6084 68.0272 61.7052 68.0272 72.8019 68.0272C73.566 68.0272 74.3301 67.99 75.0931 67.9554C75.2442 67.935 75.3859 67.8572 75.4974 67.7335C75.6089 67.6098 75.6842 67.4467 75.7125 67.2681C75.7459 66.4477 75.787 65.6274 75.787 64.807C75.7907 45.595 75.7907 26.3829 75.787 7.17083C75.787 6.52999 75.7871 5.88913 75.7715 5.24961C75.7492 4.52634 75.5902 4.03174 74.8394 3.99983C74.3812 3.97988 73.9208 3.97589 73.4626 3.97589C50.8857 3.97589 28.3081 3.97589 5.72972 3.97589C5.19439 3.97589 4.65943 3.99054 4.12483 4.01979C3.93336 4.02839 3.75086 4.11908 3.61075 4.27533C3.47065 4.43159 3.3823 4.6429 3.36186 4.87064C3.33517 5.60057 3.31848 6.33322 3.31848 7.06315C3.31848 26.3674 3.31848 45.6712 3.31848 64.9746C3.31848 68.2533 3.18056 68.0326 5.98775 68.0326L39.5116 68.0272Z" fill="#7DC4FF"/>
<path d="M88.3525 35.2453C88.3525 28.9352 88.3525 22.6247 88.3525 16.3137C88.3525 15.4907 88.3448 14.6677 88.3147 13.846C88.3137 13.5708 88.2481 13.3015 88.1254 13.0686C88.0027 12.8356 87.8279 12.6486 87.6208 12.5285C87.355 12.3596 86.9946 12.1749 86.9001 11.8903C86.7147 11.3902 86.6224 10.8478 86.6293 10.3009C86.6362 9.75389 86.7422 9.21519 86.9401 8.72193C87.0196 8.5721 87.1435 8.46384 87.2871 8.41884C87.5086 8.35051 87.7367 8.31697 87.9655 8.31911C90.7193 8.3129 93.4735 8.3129 96.228 8.31911C96.532 8.32075 96.8348 8.36535 97.13 8.45203C97.2814 8.48943 97.4206 8.5784 97.5307 8.70814C97.6408 8.83788 97.7172 9.00292 97.7506 9.18335C97.8247 9.62861 97.862 10.0815 97.8619 10.5355C97.8741 13.0045 97.8619 15.4735 97.8797 17.9438C97.9008 18.199 97.9579 18.448 98.0487 18.6804C98.0681 18.7206 98.096 18.7539 98.1295 18.7773C98.1631 18.8006 98.2012 18.813 98.24 18.8133C98.3833 18.7836 98.519 18.7154 98.637 18.6138C99.2792 17.9648 99.9896 17.4191 100.75 16.9905C101.926 16.3043 103.249 16.0625 104.543 16.2974C105.837 16.5323 107.04 17.2327 107.993 18.3054C109.555 20.0802 110.65 22.3623 111.141 24.8708C111.683 27.4413 112.016 30.0682 112.136 32.7151C112.346 37.2819 112.359 41.8585 112.175 46.4268C112.062 49.0741 111.744 51.7032 111.226 54.2806C110.824 56.4298 109.99 58.4296 108.796 60.1066C108.157 61.0226 107.373 61.7782 106.488 62.3296C105.743 62.802 104.922 63.0782 104.08 63.1399C103.238 63.2016 102.395 63.0473 101.608 62.6873C100.48 62.1244 99.4271 61.3674 98.4825 60.4404C98.3001 60.2782 97.9697 60.3739 97.9364 60.5946C97.8963 60.8605 97.8841 61.1383 97.8407 61.4056C97.8165 61.5828 97.7696 61.7547 97.7017 61.9149C97.6411 62.0825 97.5467 62.2297 97.427 62.3431C97.3072 62.4565 97.1658 62.5327 97.0155 62.565C96.7888 62.6029 96.5603 62.6233 96.3315 62.6261C93.5013 62.6261 90.6707 62.6261 87.8398 62.6261C87.6875 62.6261 87.534 62.6062 87.3827 62.5929C87.2306 62.5776 87.0872 62.5019 86.9753 62.3778C86.8634 62.2537 86.7895 62.0884 86.7654 61.9082C86.721 61.274 86.6865 60.6371 86.6776 60.0016C86.6609 59.7267 86.709 59.4518 86.8163 59.2079C86.9236 58.964 87.086 58.7608 87.2849 58.6215C87.4774 58.4731 87.6593 58.3059 87.8287 58.1216C87.975 57.9741 88.0937 57.7911 88.1767 57.5849C88.2597 57.3787 88.3052 57.1538 88.3103 56.925C88.3359 56.1033 88.3515 55.2804 88.3515 54.4574C88.3544 48.0507 88.3548 41.6467 88.3525 35.2453ZM97.8674 39.779C97.8674 44.2525 97.8674 48.7265 97.8674 53.2009C97.8609 53.8391 97.8817 54.4772 97.9297 55.1128C97.9639 55.3807 98.0641 55.6302 98.2177 55.8295C98.4025 56.0922 98.6372 56.2983 98.9023 56.4305C99.1673 56.5626 99.4549 56.617 99.7412 56.5892C100.027 56.5613 100.304 56.452 100.547 56.2703C100.791 56.0887 100.995 55.84 101.142 55.545C101.362 55.0688 101.527 54.5594 101.633 54.0305C101.812 52.9548 101.876 51.8561 101.822 50.7612C101.822 43.274 101.822 35.7873 101.822 28.301C101.822 27.7532 101.852 27.2015 101.808 26.659C101.752 25.8414 101.653 25.0288 101.512 24.2259C101.4 23.7367 101.133 23.3184 100.769 23.0581C100.405 22.7977 99.9706 22.7155 99.5569 22.8286C99.3076 22.8407 99.0633 22.9153 98.8397 23.0476C98.6162 23.1799 98.4185 23.3668 98.2593 23.5963C98.1001 23.8259 97.983 24.0929 97.9157 24.38C97.8484 24.6671 97.8323 24.968 97.8685 25.263C97.8619 25.6286 97.8685 25.9942 97.8685 26.3585L97.8674 39.779Z" fill="#3C3C3C"/>
<path d="M125.466 46.9547C125.466 48.9663 125.476 50.9779 125.466 52.9882C125.46 53.9956 125.617 54.995 125.93 55.9305C126.75 58.4221 128.599 58.8821 130.441 57.7853C130.986 57.4446 131.451 56.9463 131.793 56.336C132.293 55.5242 132.646 54.5969 132.83 53.6131C133.063 52.5517 133.198 51.4629 133.233 50.3663C133.235 49.8181 133.263 49.2704 133.315 48.7256C133.34 48.4508 133.443 48.1946 133.608 48.0007C133.773 47.8068 133.989 47.6871 134.219 47.662C134.668 47.5518 135.125 47.4926 135.584 47.4852C137.844 47.5942 138.06 47.8242 138.002 50.5577C137.939 53.6956 136.949 56.7056 135.208 59.055C134.081 60.6886 132.595 61.9122 130.916 62.5874C129.238 63.2625 127.434 63.3621 125.711 62.8748C123.594 62.3888 121.651 61.1447 120.14 59.3076C118.006 56.7876 116.525 53.5852 115.876 50.0845C115.319 47.3295 115.006 44.5122 114.941 41.679C114.847 38.4775 115.005 35.2725 115.412 32.1062C115.713 29.5716 116.318 27.1022 117.208 24.7737C117.999 22.686 119.139 20.8137 120.557 19.272C121.808 17.9108 123.328 16.9506 124.973 16.4812C126.619 16.0118 128.338 16.0484 129.968 16.5876C131.386 17.0238 132.672 17.9288 133.679 19.1988C134.915 20.7004 135.883 22.4874 136.523 24.4506C137.175 26.4038 137.603 28.4535 137.795 30.544C138.032 33.0894 138.101 35.6532 138.001 38.2116C138.006 38.325 137.991 38.4386 137.956 38.5442C137.921 38.6498 137.866 38.7448 137.797 38.8225C137.727 38.9002 137.644 38.9586 137.554 38.9937C137.463 39.0287 137.368 39.0395 137.273 39.0252C136.738 39.0399 136.203 39.0385 135.667 39.0385H128.097C127.485 39.0385 126.873 39.0385 126.261 39.0505C125.705 39.0624 125.483 39.3576 125.476 40.0875C125.468 42.373 125.476 44.6586 125.476 46.9441L125.466 46.9547ZM129.082 28.6933H129.096C129.096 27.0486 129.096 25.404 129.096 23.7593C129.117 23.0253 128.978 22.2974 128.694 21.6466C128.567 21.3633 128.378 21.1278 128.146 20.9662C127.914 20.8046 127.649 20.7235 127.38 20.7318C127.075 20.687 126.766 20.7501 126.491 20.9131C126.216 21.0762 125.987 21.3321 125.832 21.6492C125.548 22.2994 125.42 23.0313 125.463 23.7633C125.463 27.0535 125.463 30.3432 125.463 33.6325C125.463 33.7243 125.473 33.8147 125.476 33.9064C125.473 34.0848 125.526 34.2582 125.626 34.3911C125.725 34.524 125.863 34.6066 126.012 34.6217C126.852 34.6262 127.691 34.6235 128.531 34.6138C128.681 34.6 128.821 34.5185 128.923 34.3859C129.025 34.2533 129.08 34.0795 129.079 33.8997C129.084 32.166 129.082 30.4297 129.082 28.6933Z" fill="#3C3C3C"/>
<path d="M151.627 33.3061V54.4154C151.627 54.8728 151.646 55.3315 151.627 55.7862C151.535 56.3275 151.584 56.8894 151.768 57.3964C151.951 57.9033 152.26 58.331 152.652 58.6221C152.745 58.7011 152.823 58.8029 152.881 58.9208C152.938 59.0386 152.974 59.1698 152.986 59.3056C153.016 60.1206 152.986 60.9396 152.964 61.7573C152.956 62.0298 152.583 62.4433 152.347 62.4939C152.126 62.557 151.9 62.5974 151.672 62.6148C148.309 62.6219 144.945 62.6219 141.581 62.6148C141.43 62.6309 141.277 62.6035 141.136 62.535C140.951 62.41 140.698 62.2412 140.653 62.0351C140.423 60.9704 140.419 59.8542 140.64 58.787C140.695 58.5667 140.789 58.3629 140.915 58.1894C141.041 58.0158 141.196 57.8764 141.371 57.7805C141.611 57.6363 141.809 57.4113 141.943 57.1334C142.077 56.8555 142.139 56.537 142.123 56.217C142.123 55.5775 142.136 54.938 142.136 54.2985C142.136 41.7785 142.136 29.2589 142.136 16.7398C142.136 16.0086 142.136 15.2773 142.11 14.5474C142.122 14.2724 142.072 13.9987 141.964 13.7551C141.857 13.5114 141.697 13.3069 141.5 13.1633C141.298 13.0348 141.119 12.8584 140.975 12.6448C140.783 12.3694 140.649 12.0423 140.585 11.6915C140.531 10.9652 140.517 10.2355 140.543 9.50703C140.556 9.23295 140.646 8.97217 140.798 8.7667C140.951 8.56123 141.156 8.42304 141.382 8.37426C141.61 8.33961 141.838 8.31966 142.067 8.31445C144.82 8.31445 147.572 8.31445 150.323 8.31445C150.551 8.32955 150.777 8.36505 151.001 8.42076C151.146 8.47197 151.277 8.5704 151.379 8.70511C151.48 8.83981 151.549 9.00558 151.577 9.18397C151.601 9.44988 151.63 9.72773 151.633 9.99896C151.641 10.7302 151.633 11.4615 151.633 12.1928C151.629 19.2332 151.627 26.271 151.627 33.3061Z" fill="#3C3C3C"/>
<path d="M17.5108 46.9917C17.5108 49.0033 17.5186 51.0137 17.5108 53.0253C17.44 54.5924 17.8675 56.1336 18.7075 57.3397C18.9279 57.6573 19.2056 57.911 19.5198 58.0819C19.834 58.2527 20.1765 58.3363 20.5215 58.3262C21.174 58.3643 21.8235 58.1983 22.4059 57.8446C22.9884 57.4909 23.4835 56.9617 23.8426 56.3092C24.3472 55.5013 24.6966 54.5702 24.8658 53.5824C25.0304 52.5068 25.1438 51.4192 25.2595 50.3343C25.3173 49.7918 25.3195 49.2414 25.364 48.6963C25.3741 48.4663 25.4479 48.2469 25.5737 48.0726C25.6996 47.8983 25.8703 47.7791 26.0591 47.7337C26.7325 47.5812 27.4171 47.5112 28.1023 47.5249C29.7884 47.6871 30.0252 47.8706 30.0386 50.0511C30.0699 53.3783 29.0654 56.6007 27.2203 59.092C26.1162 60.6884 24.6664 61.8913 23.0292 62.5695C21.392 63.2476 19.6304 63.3748 17.9368 62.9371C15.8105 62.5038 13.8479 61.2966 12.3168 59.4802C10.4817 57.394 9.11737 54.7871 8.35074 51.9018C7.54348 48.8495 7.09214 45.6789 7.00944 42.4792C6.85019 39.0078 6.99708 35.5261 7.44766 32.0914C7.76696 29.562 8.37428 27.0968 9.25274 24.7643C10.0437 22.6767 11.1869 20.8068 12.6105 19.2718C13.8649 17.9151 15.3861 16.9599 17.0324 16.495C18.6787 16.03 20.3966 16.0705 22.0263 16.6127C23.3667 17.0313 24.5883 17.873 25.5631 19.0498C26.8319 20.5147 27.8269 22.2842 28.4826 24.2417C29.2436 26.4399 29.7123 28.7668 29.8718 31.1382C30.0242 33.4117 30.0097 35.7025 30.0464 37.9867C30.0597 38.8257 29.8373 39.0503 29.0521 39.0503C26.2994 39.0583 23.5456 39.0158 20.794 39.0783C19.753 39.1022 18.672 38.7339 17.6688 39.3721C17.4834 40.53 17.4332 41.713 17.5197 42.8874C17.4897 44.2582 17.513 45.629 17.513 47.0011L17.5108 46.9917ZM17.5108 28.1932C17.5108 29.9216 17.5108 31.6633 17.5108 33.3983C17.4989 33.6704 17.5172 33.9432 17.5653 34.2094C17.5998 34.3597 17.7544 34.575 17.8611 34.5817C18.6997 34.6295 19.5383 34.6442 20.378 34.6495C20.4715 34.6591 20.5657 34.6453 20.6545 34.6091C20.7433 34.5729 20.8249 34.515 20.894 34.4391C20.9631 34.3632 21.0183 34.271 21.0561 34.1683C21.0938 34.0656 21.1132 33.9547 21.1132 33.8425C21.121 33.5686 21.1288 33.2947 21.1299 33.0221C21.1299 30.0094 21.1299 26.9965 21.1299 23.9811C21.155 23.2493 21.0464 22.5198 20.8118 21.8432C20.7141 21.544 20.5486 21.2833 20.3339 21.0902C20.1192 20.8972 19.8638 20.7794 19.5962 20.7503C19.3702 20.6882 19.1358 20.684 18.9083 20.7379C18.6808 20.7919 18.4655 20.9027 18.2764 21.0632C18.0874 21.2237 17.9288 21.4301 17.8112 21.6691C17.6937 21.908 17.6197 22.1739 17.5942 22.4495C17.5212 22.8969 17.491 23.3528 17.5041 23.8083C17.5019 25.2708 17.5086 26.732 17.5086 28.1919L17.5108 28.1932Z" fill="#3C3C3C"/>
<path d="M41.6826 50.2601C41.5358 50.3518 41.3434 50.393 41.2766 50.5259C40.2761 52.4646 39.4159 54.5018 38.7052 56.6153C38.6434 56.7589 38.6065 56.9158 38.5964 57.0768C38.5864 57.2377 38.6035 57.3995 38.6467 57.5525C38.69 57.7054 38.7585 57.8463 38.8482 57.967C38.9379 58.0876 39.0471 58.1855 39.1691 58.2547C39.4031 58.4163 39.5955 58.6517 39.7252 58.9352C39.8548 59.2187 39.9167 59.5394 39.9042 59.8621C39.9119 60.4994 39.8919 61.1366 39.8442 61.7713C39.8051 61.9939 39.7064 62.1953 39.5631 62.345C39.4199 62.4947 39.2398 62.5845 39.05 62.601C37.1385 62.601 35.2271 62.5939 33.3156 62.5798C33.1637 62.5742 33.0181 62.5058 32.9037 62.3863C32.7893 62.2668 32.7132 62.1034 32.6883 61.9242C32.6645 61.1956 32.649 60.4666 32.6416 59.7372C32.6253 59.5083 32.6601 59.2783 32.7423 59.0707C32.8246 58.8631 32.9514 58.6852 33.1098 58.5551C34.0373 57.7428 34.7474 56.626 35.154 55.3403C36.5376 51.7811 37.9734 48.2524 39.4048 44.7211C39.5612 44.3565 39.6531 43.9573 39.6751 43.5484C39.6971 43.1395 39.6487 42.7295 39.5327 42.3439C38.3968 38.2763 37.2701 34.2052 36.1528 30.1306C35.5789 28.0525 35.0039 25.9744 34.4422 23.891C34.2069 22.7289 33.6658 21.6877 32.8985 20.9208C32.6886 20.7179 32.5228 20.4572 32.4157 20.161C32.3086 19.8649 32.2632 19.5421 32.2834 19.2203C32.2834 18.9464 32.2745 18.6725 32.2734 18.3973C32.2734 16.9653 32.5359 16.6144 33.7504 16.609C36.9625 16.5944 40.1756 16.609 43.3887 16.609C43.6179 16.6015 43.8467 16.636 44.0672 16.7114C44.1804 16.7354 44.2862 16.7954 44.3734 16.8849C44.4606 16.9745 44.5262 17.0904 44.5632 17.2206C44.7537 18.1072 44.7537 19.037 44.5632 19.9236C44.4556 20.2624 44.2808 20.5649 44.0538 20.805C43.838 21.0689 43.6914 21.4024 43.6321 21.7646C43.5728 22.1267 43.6034 22.5017 43.7202 22.8433C44.2244 24.6621 44.7478 26.473 45.2906 28.2758C45.3629 28.5152 45.5753 28.6934 45.7588 28.95C46.5752 26.945 47.3804 24.9852 48.1667 23.0161C48.2759 22.6753 48.3618 22.3245 48.4237 21.9671C48.4795 21.7945 48.488 21.6052 48.448 21.4265C48.408 21.2478 48.3216 21.0889 48.2012 20.9726C47.8612 20.6753 47.5983 20.2691 47.4429 19.8011C47.2874 19.333 47.2457 18.822 47.3226 18.3268C47.3404 18.0543 47.3403 17.779 47.3559 17.5051C47.3838 17.2785 47.4767 17.0705 47.6188 16.9168C47.7608 16.763 47.9431 16.673 48.1345 16.6622C49.9689 16.64 51.8032 16.6307 53.6376 16.6343C53.8266 16.6598 54.0047 16.7535 54.1481 16.9029C54.2915 17.0523 54.3935 17.2502 54.4406 17.4705C54.5977 18.2748 54.6008 19.1111 54.4495 19.9169C54.389 20.2716 54.222 20.5874 53.9802 20.805C53.39 21.2348 52.9242 21.8706 52.6455 22.6266C50.9802 26.7341 49.3119 30.8397 47.6406 34.9436C47.5514 35.1425 47.498 35.3615 47.4836 35.5865C47.4692 35.8116 47.4943 36.0377 47.5573 36.2505C49.3568 42.7441 51.15 49.2407 52.9369 55.7405C53.1343 56.6279 53.5241 57.4374 54.0669 58.0871C54.2958 58.3296 54.4764 58.6304 54.5953 58.9672C54.7143 59.3041 54.7686 59.6684 54.7543 60.0336C54.7354 62.5598 54.9111 62.6475 52.6522 62.6302C49.8984 62.609 47.1446 62.6303 44.3908 62.621C43.9348 62.621 43.4777 62.5664 43.0228 62.5186C42.8739 62.4782 42.7371 62.3898 42.6273 62.263C42.5175 62.1361 42.4389 61.9758 42.4 61.7993C42.3777 60.9829 42.3577 60.164 42.39 59.3489C42.4422 59.0861 42.5484 58.8429 42.6991 58.6416C42.782 58.487 42.8935 58.3574 43.025 58.2627C43.8158 57.7441 43.7413 57.0196 43.4699 56.1567C42.9794 54.6237 42.5479 53.0627 42.0874 51.5165C41.9651 51.095 41.8216 50.6749 41.6826 50.2601Z" fill="#3C3C3C"/>
<path d="M58.4303 39.5034C58.4303 34.1125 58.4303 28.722 58.4303 23.3319C58.4434 22.8759 58.4266 22.4194 58.3802 21.9665C58.3728 21.8302 58.3218 21.7025 58.2377 21.6099C58.1537 21.5173 58.043 21.4669 57.9287 21.4692C57.7003 21.4654 57.4726 21.4347 57.2492 21.3775C57.0984 21.3525 56.9588 21.2687 56.852 21.1391C56.7452 21.0095 56.6772 20.8414 56.6586 20.6609C56.6341 20.1145 56.6085 19.568 56.6085 19.0215C56.6085 17.1056 56.5618 17.1841 58.1378 16.5925C59.5288 16.0818 60.79 15.161 61.8053 13.915C62.8206 12.669 63.5574 11.1377 63.9479 9.46201C64.025 9.11186 64.1231 8.76886 64.2415 8.43563C64.2943 8.26247 64.3878 8.11116 64.5107 7.99986C64.6336 7.88856 64.7807 7.822 64.9344 7.8081C65.6963 7.78417 66.4593 7.80806 67.2211 7.82003C67.366 7.87657 67.4978 7.97271 67.6061 8.10081C67.7144 8.2289 67.7962 8.3854 67.845 8.55792C67.9091 9.00507 67.9485 9.4568 67.963 9.91012C67.9807 11.9204 67.9719 13.9293 67.9974 15.9396C67.9853 16.0765 68.0181 16.2136 68.0888 16.3222C68.1595 16.4308 68.2627 16.5024 68.3767 16.5219C68.5991 16.5525 68.8305 16.5752 69.0585 16.5991C69.2865 16.6231 69.5167 16.6256 69.7424 16.6682C69.9673 16.7244 70.1727 16.8608 70.3315 17.0592C70.4903 17.2576 70.5951 17.5088 70.6323 17.7798C70.6623 18.5974 70.6745 19.4204 70.6478 20.2381C70.6266 20.5576 70.5057 20.8558 70.3092 21.0738C70.1127 21.2917 69.8549 21.4134 69.5868 21.4147C69.2064 21.4493 68.8238 21.4533 68.4434 21.4772C68.3374 21.5105 68.2408 21.5776 68.164 21.6712C68.0873 21.7649 68.0331 21.8816 68.0074 22.009C67.9896 22.5555 67.9674 23.1032 67.9674 23.651C67.9674 33.9746 67.9674 44.2986 67.9674 54.6231C67.9674 54.897 67.9863 55.1735 67.9674 55.4447C67.8718 56.0799 67.9519 56.735 68.1958 57.3108C68.4396 57.8867 68.8338 58.3517 69.3187 58.6356C69.6236 58.8326 69.8757 59.1287 70.0459 59.4896C70.2161 59.8504 70.2975 60.2614 70.2808 60.6752C70.2828 61.1294 70.2654 61.5833 70.2285 62.0353C70.2074 62.365 69.9738 62.4794 69.7625 62.5486C69.5394 62.6104 69.3106 62.6367 69.0818 62.627C66.4826 62.627 63.8845 62.6163 61.2864 62.6403C60.9828 62.6517 60.682 62.5671 60.4145 62.395C60.1469 62.223 59.9221 61.9696 59.7627 61.6604C58.9875 60.2934 58.538 58.6999 58.4626 57.0508C58.4103 56.3249 58.4347 55.5883 58.4347 54.8597C58.431 49.7383 58.4296 44.6195 58.4303 39.5034Z" fill="#3C3C3C"/>
</svg>
