<svg width="50" height="51" viewBox="0 0 50 51" fill="none" xmlns="http://www.w3.org/2000/svg">
<path d="M4.72105 25.3859C1.86455 26.246 0.358966 28.8673 0.358966 31.4928C0.358966 38.6578 9.63999 40.1799 12.5089 34.2792V43.684C12.5089 51.4285 23.1717 52.0926 25.0444 45.6969C27.01 52.2432 37.5697 51.3109 37.5697 43.6799C37.5697 41.1389 36.0744 38.9569 33.9274 37.9174H43.3631C51.1468 37.9174 51.7841 27.1493 45.2915 25.3467C52.0481 23.1564 50.922 12.8442 43.3177 12.8442C40.8139 12.8442 38.6174 14.1414 37.5697 16.3173V7.03424C37.5697 -0.710266 26.913 -1.37437 25.0362 5.01716C23.0542 -1.60949 12.5047 -0.598893 12.5047 7.03424C12.5047 9.60405 14.0309 11.8109 16.2171 12.8359H6.71338C-1.0435 12.8359 -1.70142 23.5297 4.72105 25.3859ZM10.0772 31.4928C10.0772 35.758 3.45264 36.1107 3.45264 31.4949C3.45264 29.6408 4.62411 28.1599 6.7505 28.1599H10.0772V31.4928ZM13.1709 28.5539C13.076 26.8255 13.3875 26.3388 12.8285 25.6891H16.376C15.0209 26.2068 13.8577 27.1617 13.1709 28.5539ZM22.256 43.684C22.256 48.0832 15.6005 48.0894 15.6005 43.684V31.4928C15.6005 27.106 22.256 27.1039 22.256 31.4928V43.684ZM25.3497 37.5998V34.2462C25.8942 35.5187 26.8285 36.6077 28.1732 37.2615C26.5232 37.3502 26.0035 37.0408 25.3497 37.5998ZM27.8205 43.684V40.3531C28.7197 40.5553 34.476 39.2312 34.476 43.6799C34.474 48.0729 27.8226 48.0585 27.8205 43.684ZM43.3631 34.8237H31.1472C26.7563 34.8237 26.7563 28.1599 31.1472 28.1599H43.3631C47.7664 28.1599 47.7726 34.8237 43.3631 34.8237ZM43.3157 15.9399C47.9418 15.9399 47.5911 22.5954 43.326 22.5954H39.9993C40.2777 21.325 38.7804 15.9399 43.3157 15.9399ZM36.9056 22.2407C36.9943 23.8989 36.6952 24.3444 37.2356 25.0662H33.8697C35.1504 24.5259 36.2477 23.5895 36.9056 22.2407ZM27.8205 7.03424C27.8205 2.63503 34.476 2.62884 34.476 7.03424V19.2625C34.476 23.6638 27.8205 23.6638 27.8205 19.2625V7.03424ZM29.223 25.3467C26.9935 25.9655 25.6054 27.6237 25.0609 29.5645C24.4216 27.3288 22.6994 25.9593 20.7092 25.4519C23.0191 24.8703 24.4504 23.1791 25.0114 21.2033C25.6343 23.4245 27.2884 24.8043 29.223 25.3467ZM24.7268 13.1205V16.5112C24.1741 15.218 23.2212 14.1084 21.8414 13.4588C23.5863 13.366 23.9967 13.6795 24.7268 13.1205ZM22.256 7.02393V10.3651C21.3609 10.165 15.5963 11.4912 15.5963 7.03424C15.5984 2.66184 22.256 2.5216 22.256 7.02393ZM6.71338 15.9296H18.9293C23.3326 15.9296 23.3388 22.5934 18.9293 22.5934H6.71338C2.31004 22.5934 2.30386 15.9296 6.71338 15.9296Z" fill="black"/>
</svg>
