<svg width="42" height="44" viewBox="0 0 42 44" fill="none" xmlns="http://www.w3.org/2000/svg">
<path d="M20.7783 0.355469C14.5751 0.355469 9.52832 5.40222 9.52832 11.6055C9.52832 17.8087 14.5751 22.8555 20.7783 22.8555C26.9816 22.8555 32.0283 17.8087 32.0283 11.6055C32.0283 5.40222 26.9816 0.355469 20.7783 0.355469ZM20.7783 18.3555C17.0568 18.3555 14.0283 15.327 14.0283 11.6055C14.0283 7.88397 17.0568 4.85547 20.7783 4.85547C24.4998 4.85547 27.5283 7.88397 27.5283 11.6055C27.5283 15.327 24.4998 18.3555 20.7783 18.3555ZM41.0283 43.1055V40.8555C41.0283 32.1727 33.9611 25.1055 25.2783 25.1055H16.2783C7.59332 25.1055 0.52832 32.1727 0.52832 40.8555V43.1055H5.02832V40.8555C5.02832 34.6522 10.0751 29.6055 16.2783 29.6055H25.2783C31.4816 29.6055 36.5283 34.6522 36.5283 40.8555V43.1055H41.0283Z" fill="#3F4449"/>
</svg>
