<svg width="38" height="38" viewBox="0 0 38 38" fill="none" xmlns="http://www.w3.org/2000/svg">
<path d="M36.7313 35.0657L27.1571 25.6444C29.6642 22.9204 31.2048 19.3179 31.2048 15.3537C31.2035 6.87355 24.2187 0 15.6018 0C6.98486 0 0 6.87355 0 15.3537C0 23.8339 6.98486 30.7074 15.6018 30.7074C19.3249 30.7074 22.7396 29.4196 25.4219 27.2787L35.0333 36.7371C35.5016 37.1985 36.2619 37.1985 36.7302 36.7371C37.1996 36.2759 37.1996 35.5271 36.7313 35.0657ZM15.6018 28.3451C8.31092 28.3451 2.40055 22.5287 2.40055 15.3537C2.40055 8.17871 8.31092 2.36226 15.6018 2.36226C22.8927 2.36226 28.803 8.17871 28.803 15.3537C28.803 22.5287 22.8927 28.3451 15.6018 28.3451Z" fill="white"/>
</svg>
