<svg width="51" height="51" viewBox="0 0 51 51" fill="none" xmlns="http://www.w3.org/2000/svg">
<path d="M43.1005 7.8345C38.5148 3.15218 32.1757 0.610352 25.7017 0.610352C11.9446 0.610352 0.884874 11.7141 1.01975 25.226C1.01975 29.507 2.23362 33.6542 4.25673 37.4L0.75 50.1092L13.8328 46.7647C17.4744 48.7714 21.5206 49.7078 25.5668 49.7078C39.1891 49.7078 50.2488 38.604 50.2488 25.0922C50.2488 18.5369 47.6862 12.383 43.1005 7.8345ZM25.7017 45.5606C22.0601 45.5606 18.4185 44.6242 15.3164 42.7512L14.5072 42.3499L6.68446 44.3566L8.70758 36.7311L8.16808 35.9284C2.23362 26.43 5.06597 13.8546 14.7769 7.96828C24.4879 2.08194 37.0312 4.89133 42.9656 14.5235C48.9001 24.1557 46.0677 36.5973 36.3568 42.4837C33.2547 44.4904 29.4782 45.5606 25.7017 45.5606ZM37.5706 30.711L36.087 30.0421C36.087 30.0421 33.929 29.1056 32.5803 28.4367C32.4454 28.4367 32.3106 28.3029 32.1757 28.3029C31.7711 28.3029 31.5013 28.4367 31.2316 28.5705C31.2316 28.5705 31.0967 28.7043 29.2084 30.8448C29.0736 31.1123 28.8038 31.2461 28.5341 31.2461H28.3992C28.2643 31.2461 27.9946 31.1123 27.8597 30.9785L27.1853 30.711C25.7017 30.0421 24.353 29.2394 23.274 28.1692C23.0042 27.9016 22.5996 27.634 22.3299 27.3665C21.3857 26.43 20.4416 25.3598 19.7673 24.1557L19.6324 23.8882C19.4975 23.7544 19.4975 23.6206 19.3626 23.3531C19.3626 23.0855 19.3626 22.8179 19.4975 22.6841C19.4975 22.6841 20.037 22.0152 20.4416 21.6139C20.7114 21.3463 20.8463 20.945 21.116 20.6774C21.3857 20.2761 21.5206 19.741 21.3857 19.3396C21.2509 18.6707 19.6324 15.0587 19.2278 14.256C18.958 13.8546 18.6883 13.7208 18.2836 13.5871H17.879C17.6093 13.5871 17.2046 13.5871 16.8 13.5871C16.5303 13.5871 16.2605 13.7208 15.9908 13.7208L15.8559 13.8546C15.5862 13.9884 15.3164 14.256 15.0467 14.3898C14.7769 14.6573 14.642 14.9249 14.3723 15.1924C13.4282 16.3965 12.8887 17.868 12.8887 19.3396C12.8887 20.4099 13.1584 21.4801 13.563 22.4166L13.6979 22.8179C14.9118 25.3598 16.5303 27.634 18.6883 29.6407L19.2278 30.1759C19.6324 30.5772 20.037 30.8448 20.3068 31.2461C23.1391 33.6542 26.3761 35.3933 30.0177 36.3298C30.4223 36.4636 30.9618 36.4635 31.3664 36.5973C31.7711 36.5973 32.3106 36.5973 32.7152 36.5973C33.3895 36.5973 34.1988 36.3298 34.7383 36.0622C35.1429 35.7946 35.4127 35.7946 35.6824 35.5271L35.9522 35.2595C36.2219 34.992 36.4917 34.8582 36.7614 34.5906C37.0312 34.3231 37.3009 34.0555 37.4358 33.7879C37.7055 33.2528 37.8404 32.5839 37.9753 31.915C37.9753 31.6474 37.9753 31.2461 37.9753 30.9785C37.9753 30.9785 37.8404 30.8448 37.5706 30.711Z" fill="#222222"/>
</svg>
